<svg width="800" height="800" viewBox="0 0 800 800" fill="none" xmlns="http://www.w3.org/2000/svg">
<rect width="800" height="800" rx="400" fill="white"/>
<path d="M400 377.778C504.321 377.778 588.889 293.21 588.889 188.889C588.889 84.5685 504.321 0 400 0C295.679 0 211.111 84.5685 211.111 188.889C211.111 293.21 295.679 377.778 400 377.778Z" fill="#B0EEF1"/>
<path d="M644.444 800C693.534 800 733.333 760.202 733.333 711.111C733.333 527.017 584.092 377.778 400 377.778C215.908 377.778 66.6672 527.017 66.6672 711.111C66.6672 760.202 106.466 800 155.556 800H644.444Z" fill="#B0EEF1"/>
<path d="M588.889 188.889C588.889 84.5688 504.32 0 400 0H399.998V377.778H400C504.32 377.778 588.889 293.209 588.889 188.889Z" fill="#7AE0E6"/>
<path d="M400 377.778L399.998 800H644.445C693.536 800 733.334 760.202 733.334 711.111C733.333 527.017 584.094 377.778 400 377.778Z" fill="#7AE0E6"/>
</svg>
